<?xml version="1.0" encoding="utf-8"?>
<!-- Generator: Adobe Illustrator 16.0.0, SVG Export Plug-In . SVG Version: 6.00 Build 0)  -->
<!DOCTYPE svg PUBLIC "-//W3C//DTD SVG 1.1//EN" "http://www.w3.org/Graphics/SVG/1.1/DTD/svg11.dtd">
<svg version="1.1" id="Layer_1" xmlns="http://www.w3.org/2000/svg" xmlns:xlink="http://www.w3.org/1999/xlink" x="0px" y="0px"
	viewBox="0 0 288 105.333"
	 preserveAspectRatio="x288pxY105.333 meet"
	 >
<g>
	<polygon fill="#3078AC" points="78.225,19.507 32.39,42.739 11.832,27.912 	"/>

	<path fill="#CADEE8" d="M82.625,50.077c0-6.741,3.375-12.718,8.375-16.536V20.411l-12.808,6.192l-0.063,58.906l10.354-21.134
		C84.863,60.64,82.625,55.619,82.625,50.077z"/>
	<polygon fill="#3078AC" points="78,26.737 31.332,50.71 11,33.907 11,59.6 78,85.519 	"/>
	<path fill="#FFFFFF" d="M31.624,53.666c0,0-2.224-0.182-2.223,1.369c0,1.551,1.375,2.826,1.375,2.826l-0.08,4.016l3.476,1.366
		l-0.949-4.83c0,0,2.183-0.729,1.042-2.826C33.268,53.759,31.624,53.666,31.624,53.666z"/>
</g>
</svg>
